<svg xmlns="http://www.w3.org/2000/svg" width="79.615" height="77.39" viewBox="0 0 79.615 77.39">
  <g id="line-graph" opacity="0.52" style="isolation: isolate">
    <path id="Path_17" data-name="Path 17" d="M70.886,44.027h-12.1a1.169,1.169,0,1,0,0,2.337h12.1a6.4,6.4,0,0,1,6.392,6.392V89.27H63.824a1.169,1.169,0,1,0,0,2.337H77.169a6.4,6.4,0,0,1-6.283,5.224H40.356a1.169,1.169,0,1,0,0,2.337h6.688v4.6a1.169,1.169,0,0,0,.284.764l2.749,3.185H29.7l2.749-3.185a1.169,1.169,0,0,0,.284-.764v-4.6h2.647a1.169,1.169,0,1,0,0-2.337H8.73a6.4,6.4,0,0,1-6.283-5.224h56.4a1.169,1.169,0,1,0,0-2.337H2.337V52.757A6.4,6.4,0,0,1,8.73,46.364H20.983a1.169,1.169,0,0,0,0-2.337H8.73A8.74,8.74,0,0,0,0,52.757V90.439a8.74,8.74,0,0,0,8.73,8.73H30.391v4.17l-3.783,4.383H25.05a3.385,3.385,0,0,0-3.382,3.382v1.185a3.385,3.385,0,0,0,3.382,3.382H54.566a3.385,3.385,0,0,0,3.382-3.382V111.1a3.385,3.385,0,0,0-3.382-3.382h-1.4l-3.783-4.383v-4.17H70.886a8.74,8.74,0,0,0,8.73-8.73V52.757A8.74,8.74,0,0,0,70.886,44.027ZM55.61,111.1v1.185a1.045,1.045,0,0,1-1.044,1.044H25.05a1.045,1.045,0,0,1-1.044-1.044V111.1a1.045,1.045,0,0,1,1.044-1.044H54.566A1.045,1.045,0,0,1,55.61,111.1Z" transform="translate(0 -38.279)" fill="#fff"/>
    <path id="Path_18" data-name="Path 18" d="M79.964,25.613a1.169,1.169,0,0,0,1.265-1.063,16.47,16.47,0,0,1,5.267-10.7q.535-.493,1.106-.933l9.113,13.734a1.169,1.169,0,0,0,.974.522h16.482a16.556,16.556,0,0,1-9.581,13.843l-6.7-6.335a4.33,4.33,0,1,0-7.828-.345l-1.046.827a1.169,1.169,0,1,0,1.45,1.833l1.048-.829a4.319,4.319,0,0,0,4.77.211l5.858,5.539A16.531,16.531,0,0,1,81.476,29.2a1.169,1.169,0,1,0-2.294.45,18.752,18.752,0,0,0,4.9,9.4l-8.738,6.91A4.324,4.324,0,1,0,76.8,47.8l9.031-7.142a18.839,18.839,0,0,0,18.249,3.088L108,47.455a4.331,4.331,0,1,0,7.676.023l8.514-7.954a4.339,4.339,0,1,0-1.6-1.708l-8.514,7.954a4.322,4.322,0,0,0-4.475-.013L106.4,42.725A18.86,18.86,0,1,0,78.9,24.347a1.168,1.168,0,0,0,1.063,1.266Zm12.1,7.05a1.994,1.994,0,1,1,1.994,1.993A2,2,0,0,1,92.065,32.663Zm-19.26,18.8A1.994,1.994,0,1,1,74.8,49.471,2,2,0,0,1,72.805,51.464Zm53.637-17.633a1.994,1.994,0,1,1-1.994,1.994A2,2,0,0,1,126.442,33.831ZM113.283,48.1l.007.008,0,0a1.993,1.993,0,1,1-2.906-.012h0l0,0a1.984,1.984,0,0,1,2.891,0Zm.889-23.272H98.317L89.549,11.619a16.527,16.527,0,0,1,24.623,13.214Z" transform="translate(-57.804 -7.139)" fill="#fff"/>
  </g>
</svg>