<svg xmlns="http://www.w3.org/2000/svg" width="127.966" height="138.991" viewBox="0 0 127.966 138.991">
  <g id="Layer_2" data-name="Layer 2" transform="translate(-0.004 0)">
    <g id="Layer_1" data-name="Layer 1" transform="translate(0.004 0)">
      <path id="Path_368" data-name="Path 368" d="M40.215,138.364l-1.878-12.522s-.8-5.159-5.009-5.009S9.875,125.179,10.163,115.2s3.13-9.61,1.252-11.27-4.783-5.159-3.13-6.887,2.636-1.171.626-1.878-2.623-1.841-1.878-4.383S9.58,87.151,5.78,85.773-1.614,83.9.771,78.26s7.964-14.738,9.391-16.9,1.728-.814.626-4.383S8.6.194,69.015,0c0,0,61.819-.47,58.852,50.713,0,0,.626,20.241-21.913,36.939,0,0-24.179,13-2.5,51.339Z" transform="translate(-0.004 0)" fill="#444951"/>
      <path id="Path_369" data-name="Path 369" d="M95.07,89.745A35.063,35.063,0,0,1,61.7,65.473a19.1,19.1,0,1,1-6.39-37.083h.626a12.2,12.2,0,0,1,21.237-5.009c.457.119.9.263,1.34.413A35.061,35.061,0,1,1,95.07,89.745Z" transform="translate(-13.538 -7.102)" fill="#fff"/>
      <path id="Path_370" data-name="Path 370" d="M71.484,57.679l-.332,1.784-2.686.626a10.7,10.7,0,0,1-.682,1.427l1.19,2.5L67.8,65.4l-2.661-.789a10.918,10.918,0,0,1-1.3.9l-.213,2.755-1.709.626-1.878-2a10.689,10.689,0,0,1-1.578.125L56.89,69.287l-1.772-.351-.626-2.686a10.738,10.738,0,0,1-1.465-.689l-2.5,1.19-1.365-1.19.789-2.648a10.925,10.925,0,0,1-.9-1.3L46.3,61.4l-.626-1.709,2-1.878a10.687,10.687,0,0,1-.125-1.578L45.27,54.668l.332-1.784,2.686-.626a10.7,10.7,0,0,1,.682-1.427l-1.19-2.5,1.177-1.377,2.648.789a10.844,10.844,0,0,1,1.3-.9l.213-2.755,1.709-.626,1.878,2a10.776,10.776,0,0,1,1.578-.125l1.565-2.279,1.784.332.626,2.686a10.776,10.776,0,0,1,1.484.7l2.5-1.19,1.39,1.19-.808,2.63a10.913,10.913,0,0,1,.889,1.3l2.755.213.626,1.709-2,1.878a10.7,10.7,0,0,1,.125,1.578ZM59.8,48.563a7.738,7.738,0,1,0,6.192,9.016h0A7.738,7.738,0,0,0,59.8,48.563Z" transform="translate(-16.929 -16.101)" fill="#c3c7d1"/>
      <path id="Shape_11_copy_2" data-name="Shape 11 copy 2" d="M89.593,32.705v1l-1.384.626a5.91,5.91,0,0,1-.225.839l.889,1.252-.495.858-1.5-.157a5.979,5.979,0,0,1-.626.626l.157,1.5-.858.495L84.3,38.853a5.912,5.912,0,0,1-.839.225l-.626,1.384h-.939l-.626-1.384a5.911,5.911,0,0,1-.839-.225l-1.252.889-.858-.495.157-1.5a5.979,5.979,0,0,1-.626-.626l-1.5.157-.495-.858.889-1.252a5.917,5.917,0,0,1-.225-.839L75.13,33.7v-1l1.384-.626a5.841,5.841,0,0,1,.225-.839l-.889-1.252.495-.858,1.509.163a5.916,5.916,0,0,1,.626-.626l-.157-1.5.858-.495,1.252.889a5.828,5.828,0,0,1,.877-.175L81.936,26h1l.626,1.384a5.829,5.829,0,0,1,.839.225l1.252-.889.858.495-.157,1.5a5.916,5.916,0,0,1,.626.626l1.509-.163.495.858L88.09,31.29a5.93,5.93,0,0,1,.106.8Zm-7.2-3.757a4.239,4.239,0,1,0,4.239,4.239h0a4.239,4.239,0,0,0-4.239-4.226Z" transform="translate(-28.095 -9.722)" fill="#33b92d"/>
      <path id="Shape_11_copy" data-name="Shape 11 copy" d="M142.219,57.521v3.932l-5.466,2.429a23.164,23.164,0,0,1-.883,3.312l3.519,4.84-1.972,3.418-5.985-.626a23.483,23.483,0,0,1-2.417,2.417l.626,5.954-3.4,1.966-4.827-3.544a23.252,23.252,0,0,1-3.312.889l-2.41,5.466H111.76l-2.429-5.466a23.168,23.168,0,0,1-3.312-.883l-4.84,3.519-3.406-1.966.626-5.954a23.5,23.5,0,0,1-2.4-2.4l-5.954.626-1.966-3.4,3.519-4.84a23.244,23.244,0,0,1-.858-3.331L85.27,61.453V57.521l5.466-2.429a23.283,23.283,0,0,1,.883-3.312L88.1,46.94l1.941-3.418,5.96.626a23.591,23.591,0,0,1,2.417-2.417l-.626-5.954,3.406-1.966,4.84,3.519a23.265,23.265,0,0,1,3.306-.883L111.766,31H115.7l2.429,5.466a23.266,23.266,0,0,1,3.287.889l4.84-3.519,3.4,1.966-.626,5.954a23.593,23.593,0,0,1,2.4,2.392l5.96-.626,1.966,3.4-3.519,4.84a23.284,23.284,0,0,1,.883,3.312ZM113.732,42.727a16.76,16.76,0,1,0,16.76,16.76h0a16.76,16.76,0,0,0-16.76-16.76Z" transform="translate(-31.886 -11.591)" fill="#33b92d"/>
      <g id="FX" transform="translate(72.033 40.946)">
        <path id="Path_371" data-name="Path 371" d="M118.252,71.4h2.5a2.129,2.129,0,0,1,1.183.188,1.434,1.434,0,0,1,0,2.467,2.091,2.091,0,0,1-1.183.188h-2.5V77.72a2.617,2.617,0,0,1-.207,1.327,1.6,1.6,0,0,1-2.761,0,2.36,2.36,0,0,1-.207-1.327V68.1c0-.952.063-1.252.332-1.6a1.772,1.772,0,0,1,1.578-.707h4.295a2.141,2.141,0,0,1,1.183.188,1.434,1.434,0,0,1,0,2.467,2.141,2.141,0,0,1-1.183.188h-3.03Z" transform="translate(-115.056 -65.543)" fill="#2f3642"/>
        <path id="Path_372" data-name="Path 372" d="M140.535,76.713a2.266,2.266,0,0,1,.626,1.471,1.634,1.634,0,0,1-1.615,1.534c-.626,0-.977-.225-1.6-1.1l-2.78-3.857L132.452,78.6c-.626.833-.977,1.1-1.6,1.1a1.634,1.634,0,0,1-1.615-1.534c0-.476.125-.745.626-1.453l3.519-4.677-2.842-3.757a2.154,2.154,0,0,1-.626-1.346,1.578,1.578,0,0,1,1.578-1.534c.626,0,.952.225,1.553,1.058l2.135,2.924,1.991-2.842c.626-.914.952-1.139,1.615-1.139a1.628,1.628,0,0,1,1.628,1.628,2.216,2.216,0,0,1-.626,1.409l-2.755,3.6Z" transform="translate(-120.36 -65.4)" fill="#2f3642"/>
      </g>
      <g id="_" data-name=" " transform="translate(37.89 35.963)">
        <path id="Path_373" data-name="Path 373" d="M66.606,58.811c.707.682.933,1.252.626,1.647a.739.739,0,0,1-1.046.2c-.15-.1-.157-.106-.463-.513a1.74,1.74,0,0,0-.4-.407.707.707,0,0,0-.989.038c-.157.225-.094.451.219.82a7.476,7.476,0,0,1,1.027,1.471,1.8,1.8,0,0,1-.194,1.878,2.235,2.235,0,0,1-1.29.933,2.385,2.385,0,0,1-1.6-.169l-.319.463a.839.839,0,0,1-.294.313.526.526,0,0,1-.507-.044.5.5,0,0,1-.219-.463.708.708,0,0,1,.182-.388l.288-.419c-.952-.789-1.321-1.559-.97-2.06a.751.751,0,0,1,1.021-.219c.138.094.138.094.589.707a2.98,2.98,0,0,0,.582.582.764.764,0,0,0,1.108-.088c.238-.344.131-.626-.582-1.459a2.836,2.836,0,0,1-.77-1.34,1.809,1.809,0,0,1,.307-1.409A2.16,2.16,0,0,1,64.315,58a2.36,2.36,0,0,1,1.44.213l.282-.407a.776.776,0,0,1,.307-.313.5.5,0,0,1,.5.038.532.532,0,0,1,.232.47.883.883,0,0,1-.194.394Z" transform="translate(-60.522 -57.44)" fill="#33b92d"/>
      </g>
      <g id="_2" data-name=" 2" transform="translate(52.423 21.142)">
        <path id="Path_374" data-name="Path 374" d="M87.219,36.75a.714.714,0,0,1,.369-.119.476.476,0,0,1,.382.257.457.457,0,0,1,0,.457c-.069.1-.113.131-.313.232l-2.01,1.008a.495.495,0,0,1-.72-.175A.507.507,0,0,1,84.89,38a1.346,1.346,0,0,0-.075-.939l-.263.131a.626.626,0,0,1-.376.113.463.463,0,0,1-.363-.72c.069-.1.113-.131.313-.232l.081-.044a1.6,1.6,0,0,1-.357-.451c-.319-.626.069-1.421.914-1.841s1.634-.275,1.878.244a.513.513,0,0,1-.238.682c-.163.081-.3.063-.545-.081a.664.664,0,0,0-.707-.044.495.495,0,0,0-.263.682c.05.1.106.157.313.307l.332-.169a.626.626,0,0,1,.376-.113.463.463,0,0,1,.363.72c-.069.1-.113.131-.313.232l-.225.113v.044a1.559,1.559,0,0,1,.119.808Z" transform="translate(-83.735 -33.769)" fill="#c3c7d1"/>
      </g>
    </g>
  </g>
</svg>
